<svg viewBox="0 0 37 40" xmlns="http://www.w3.org/2000/svg">
<path d="M23.692 17.7778H5.92285V19.2593H23.692V17.7778Z"/>
<path d="M5.92285 22.2222V23.7037H20.3338L21.8146 22.2222H5.92285Z"/>
<path d="M5.92285 26.6665V28.148H15.8913L17.3721 26.6665H5.92285Z"/>
<path d="M13.3267 31.1113H5.92285V32.5928H13.3267V31.1113Z"/>
<path d="M36.5666 15.8432L34.4724 13.7482C33.8945 13.17 32.9563 13.1699 32.3784 13.7481C27.034 19.0951 21.6754 24.4563 16.2885 29.8458C16.2885 32.4094 16.2885 31.854 16.2885 34.0738C19.8532 34.0738 18.9515 34.0754 20.4453 34.0675C21.2181 33.2942 24.6291 29.8817 28.1346 26.3746V37.037C28.1346 37.8552 27.4717 38.5185 26.6538 38.5185H2.96162C2.14377 38.5185 1.48086 37.8552 1.48086 37.037V10.3702C1.48086 9.55199 2.14377 8.88875 2.96162 8.88875H5.92342V11.8518H23.6923V8.88884L26.6538 8.88875C27.4717 8.88875 28.1346 9.55199 28.1346 10.3702V15.8727L29.6154 14.3809V10.3702C29.6154 8.73374 28.2894 7.40726 26.6538 7.40726H23.4365C22.961 6.06262 21.8594 5.01382 20.4802 4.61706C19.7984 4.42095 19.2736 3.89594 19.0775 3.21381C18.544 1.35769 16.8343 0 14.8076 0C12.781 0 11.0715 1.35769 10.538 3.21353C10.3417 3.8965 9.81561 4.42085 9.13307 4.61761C7.75439 5.01512 6.65187 6.06281 6.17691 7.40726H2.96153C1.32593 7.40726 0 8.73374 0 10.3702V37.037C0 38.6734 1.32593 40 2.96153 40H26.6537C28.2893 40 29.6153 38.6734 29.6153 37.037V24.8932C32.7988 21.7082 35.7639 18.7416 36.5665 17.9384C37.1445 17.3601 37.1445 16.4215 36.5666 15.8432ZM7.404 8.86504C7.41418 7.56263 8.29375 6.40151 9.54296 6.04132C10.7192 5.70225 11.6232 4.79817 11.961 3.62317C12.3236 2.36205 13.4941 1.48149 14.8076 1.48149C16.1213 1.48149 17.2918 2.36205 17.6542 3.62317C17.9922 4.79891 18.8956 5.70271 20.0707 6.04077C21.331 6.40355 22.2114 7.57467 22.2114 8.88884V10.3703H7.404V8.86504ZM19.8283 32.5895C19.4444 32.5916 19.2871 32.5923 18.7558 32.5925L17.7692 31.6053V30.4595C18.1362 30.0923 18.3901 29.8383 18.7666 29.4615L20.8607 31.5566L19.8283 32.5895ZM21.9077 30.5091L19.8136 28.414L29.2372 18.9859L31.3313 21.0811L21.9077 30.5091ZM32.3783 20.0334L30.2842 17.9383L31.3313 16.8907L33.4255 18.9858L32.3783 20.0334ZM34.4724 17.9384L32.3783 15.8432L33.4254 14.7957L35.5195 16.8908L34.4724 17.9384Z"/>
<path d="M14.8303 5.55573C15.4437 5.55573 15.9409 5.05826 15.9409 4.44461C15.9409 3.83096 15.4437 3.3335 14.8303 3.3335C14.2169 3.3335 13.7197 3.83096 13.7197 4.44461C13.7197 5.05826 14.2169 5.55573 14.8303 5.55573Z"/>
</svg>
