<svg width="150" height="150" viewBox="0 0 150 150" fill="none" xmlns="http://www.w3.org/2000/svg">
<path d="M150 75C150 116.421 116.421 150 75 150C33.5786 150 0 116.421 0 75C0 33.5786 33.5786 0 75 0C116.421 0 150 33.5786 150 75Z" fill="#7D9DEB" fill-opacity="0.25"/>
<path d="M135 75C135 108.137 108.137 135 75 135C41.8629 135 15 108.137 15 75C15 41.8629 41.8629 15 75 15C108.137 15 135 41.8629 135 75Z" fill="#7D9DEB" fill-opacity="0.25"/>
<path d="M120 75C120 99.8528 99.8528 120 75 120C50.1472 120 30 99.8528 30 75C30 50.1472 50.1472 30 75 30C99.8528 30 120 50.1472 120 75Z" fill="#7D9DEB" fill-opacity="0.25"/>
<path d="M105 75C105 91.5685 91.5685 105 75 105C58.4315 105 45 91.5685 45 75C45 58.4315 58.4315 45 75 45C91.5685 45 105 58.4315 105 75Z" fill="#7D9DEB" fill-opacity="0.25"/>
<path d="M90 75C90 83.2843 83.2843 90 75 90C66.7157 90 60 83.2843 60 75C60 66.7157 66.7157 60 75 60C83.2843 60 90 66.7157 90 75Z" fill="#7D9DEB" fill-opacity="0.25"/>
<path d="M75 15C62.5745 15 52.5 25.0745 52.5 37.5C52.5 49.9255 71.25 75 75 75C78.75 75 97.5 49.9255 97.5 37.5C97.5 25.0745 87.4255 15 75 15ZM75 52.5C66.7273 52.5 60 45.7691 60 37.5C60 29.231 66.7273 22.5 75 22.5C83.2728 22.5 90 29.231 90 37.5C90 45.7691 83.2728 52.5 75 52.5Z" fill="#7D9DEB"/>
</svg>
