<svg class='search' viewBox="0 0 39 40" xmlns="http://www.w3.org/2000/svg">
<path d="M38.407 36.4337L28.7929 26.5323C31.2648 23.6225 32.6192 19.9614 32.6192 16.15C32.6192 7.24502 25.3026 0 16.3096 0C7.31664 0 0 7.24502 0 16.15C0 25.0549 7.31664 32.3 16.3096 32.3C19.6857 32.3 22.903 31.2916 25.6536 29.3775L35.3408 39.354C35.7457 39.7704 36.2903 40 36.8739 40C37.4263 40 37.9504 39.7915 38.3482 39.4123C39.1934 38.6069 39.2204 37.2714 38.407 36.4337ZM16.3096 4.21304C22.9569 4.21304 28.3646 9.56781 28.3646 16.15C28.3646 22.7322 22.9569 28.0869 16.3096 28.0869C9.66239 28.0869 4.25468 22.7322 4.25468 16.15C4.25468 9.56781 9.66239 4.21304 16.3096 4.21304Z"/>
</svg>
