<svg viewBox="0 0 59 40" xmlns="http://www.w3.org/2000/svg">
<path d="M52.3152 17.7833C55.6289 17.5143 57.8766 16.0318 58.7416 14.0202C57.5463 14.7428 53.8357 15.5307 51.7865 14.7804C51.6861 14.3065 51.5739 13.8565 51.4638 13.4501C49.9023 7.80759 44.5562 3.26176 38.9545 3.81092C39.4077 3.63084 39.8674 3.46317 40.3257 3.31265C40.9423 3.09531 44.5599 2.51604 43.9902 1.25937C43.5101 0.15403 39.0902 2.09472 38.258 2.34838C39.3566 1.94177 41.1734 1.24236 41.3681 0C39.685 0.227197 38.0327 1.0103 36.7561 2.14899C37.217 1.66071 37.5666 1.06565 37.6408 0.425236C33.1517 3.24758 30.5294 8.93764 28.4072 14.4572C26.7409 12.8679 25.2639 11.6164 23.939 10.9214C20.222 8.95978 15.7778 6.91311 8.80137 4.3644C8.58724 6.63597 9.94291 9.65635 13.8493 11.6649C13.0029 11.5534 11.4552 11.8022 10.2174 12.094C10.7215 14.6963 12.3678 16.8403 16.8248 17.877C14.788 18.0093 13.7353 18.4655 12.7813 19.4486C13.709 21.2585 15.9727 23.3886 20.0449 22.9514C15.5174 24.8718 18.1989 28.4283 21.8829 27.8979C15.5982 34.2863 5.68976 33.8167 0 28.4735C14.8556 48.395 47.1482 40.2551 51.9606 21.0668C55.5662 21.0971 57.6858 19.8377 59 18.4493C56.9227 18.7962 53.9117 18.4377 52.3152 17.7833Z"/>
</svg>
