<svg  viewBox="0 0 46 40"  xmlns="http://www.w3.org/2000/svg">
<path d="M39.2757 0.00863075C32.8808 -0.200721 28.5532 3.3985 26.2872 10.8104C27.4542 10.3281 28.5883 10.0848 29.6944 10.0848C32.0262 10.0848 33.0584 11.3979 32.7829 14.031C32.6462 15.6256 31.616 17.9457 29.6944 20.9906C27.7651 24.0405 26.3241 25.5629 25.3668 25.5629C24.124 25.5629 22.9927 23.2067 21.9598 18.5001C21.6134 17.1139 20.994 13.5842 20.1071 7.90209C19.2756 2.63921 17.0783 0.180212 13.5055 0.525841C11.9941 0.66523 9.73007 2.05397 6.70838 4.68219C4.50387 6.69137 2.27028 8.70108 0 10.7088L2.16301 13.5107C4.22742 12.0554 5.43507 11.3312 5.77045 11.3312C7.35349 11.3312 8.83182 13.8227 10.2075 18.8051C11.4406 23.381 12.6842 27.9507 13.9233 32.52C15.7687 37.506 18.0438 40 20.72 40C25.0485 40 30.3482 35.9154 36.5984 27.7433C42.6448 19.9198 45.7664 13.7559 45.977 9.25027C46.2545 3.22885 44.0209 0.145337 39.2757 0.00863075Z"/>
</svg>
